# xmcd CD database file
#
# Track frame offsets:
#	150
#	28221
#	51731
#	81522
#	118099
#	136454
#	159774
#	174133
#	195357
#	220285
#	242728
#	268649
#
# Disc length: 3997 seconds
#
# Revision: 0
# Processed by: cddbd v1.5.2PL0 Copyright (c) Steve Scherf et al.
# Submitted via: CDex 1.51
#
DISCID=aa0f9b0c
DTITLE=Joe Utterback, pianist - Night Train
DYEAR=1999
DGENRE=Jazz
TTITLE0=Satin Doll
TTITLE1=Don't Get Around Much Anymore
TTITLE2=Night Train
TTITLE3=Someone To Light Up My Life
TTITLE4=Keepin' Out Of Mischief Now
TTITLE5=Makin' Whoopee
TTITLE6=We Will Meet Again
TTITLE7=Song For Melissa
TTITLE8=My Foolish Heart
TTITLE9=Lullaby Of Birdland
TTITLE10=Embraceable You
TTITLE11=Wabash Blues
EXTD=YEAR: 1999
EXTT0=
EXTT1=
EXTT2=
EXTT3=
EXTT4=
EXTT5=
EXTT6=
EXTT7=
EXTT8=
EXTT9=
EXTT10=
EXTT11=
PLAYORDER=
